<svg xmlns="http://www.w3.org/2000/svg" viewBox="0 0 24 24" width="24" height="24"><path class="line" d="M22,7.3H2c-0.4,0-0.8-0.3-0.8-0.8S1.6,5.8,2,5.8h20c0.4,0,0.8,0.3,0.8,0.8S22.4,7.3,22,7.3z"/><path class="line" d="M17.5,17.8H7c-0.4,0-0.8-0.3-0.8-0.8s0.3-0.8,0.8-0.8h10.5c0.4,0,0.8,0.3,0.8,0.8S17.9,17.8,17.5,17.8z"/><path class="line" d="M18,6.8c-0.4,0-0.8-0.3-0.8-0.8V2.8c-0.1-0.6-0.6-1.1-1.3-1.1l-7.9,0c-0.7,0-1.3,0.5-1.3,1.2l0,3.1c0,0.4-0.3,0.8-0.8,0.8 S5.2,6.4,5.2,6V2.8c0.1-1.5,1.4-2.7,2.9-2.6l7.8,0c1.4-0.1,2.7,1,2.8,2.5l0,3.2C18.8,6.4,18.4,6.8,18,6.8z"/><path class="line" d="M6.7,12.8c-1.3,0-2.4-1-2.5-2.3l0-3.4c0-0.4,0.3-0.8,0.8-0.8S5.8,6.6,5.8,7v3.4c0,0.5,0.5,0.9,1,0.9l10.4,0	c0.6,0,1-0.4,1.1-0.9l0-3.3c0-0.4,0.3-0.8,0.8-0.8s0.8,0.3,0.8,0.8v3.4c-0.1,1.4-1.3,2.4-2.6,2.4l-10.3,0 C6.8,12.8,6.7,12.8,6.7,12.8z"/><path class="line" d="M4,23.8c-0.1,0-0.2,0-0.3,0c-0.4-0.1-0.6-0.6-0.4-1l4-11c0.1-0.4,0.6-0.6,1-0.4c0.4,0.1,0.6,0.6,0.4,1l-4,11 C4.6,23.6,4.3,23.8,4,23.8z"/><path class="line" d="M20,23.8c-0.3,0-0.6-0.2-0.7-0.5l-4-11c-0.1-0.4,0.1-0.8,0.4-1c0.4-0.1,0.8,0.1,1,0.4l4,11c0.1,0.4-0.1,0.8-0.4,1 C20.2,23.7,20.1,23.8,20,23.8z"/></svg>
