<svg xmlns="http://www.w3.org/2000/svg" width="24" height="24" viewBox="0 0 24 24"><path class="line" d="M3.273,1.636A1.678,1.678,0,0,1,4.909,3.273,1.678,1.678,0,0,1,3.273,4.909,1.678,1.678,0,0,1,1.636,3.273,1.678,1.678,0,0,1,3.273,1.636M3.273,0A3.214,3.214,0,0,0,0,3.273,3.214,3.214,0,0,0,3.273,6.545,3.214,3.214,0,0,0,6.545,3.273,3.214,3.214,0,0,0,3.273,0Z"/><path class="line" d="M19.273,17.636a1.636,1.636,0,1,1-1.636,1.636,1.678,1.678,0,0,1,1.636-1.636m0-1.636a3.273,3.273,0,1,0,3.273,3.273A3.214,3.214,0,0,0,19.273,16Z" transform="translate(1.455 1.455)"/><path class="line" d="M19.273,1.636a1.678,1.678,0,0,1,1.636,1.636,1.636,1.636,0,0,1-3.273,0,1.678,1.678,0,0,1,1.636-1.636m0-1.636A3.214,3.214,0,0,0,16,3.273a3.273,3.273,0,1,0,6.545,0A3.214,3.214,0,0,0,19.273,0Z" transform="translate(1.455)"/><path class="line" d="M3.273,17.636a1.636,1.636,0,0,1,0,3.273,1.636,1.636,0,0,1,0-3.273m0-1.636a3.273,3.273,0,1,0,0,6.545,3.273,3.273,0,1,0,0-6.545Z" transform="translate(0 1.455)"/><path class="line" d="M11.773,4.136a.825.825,0,0,1,.436.109L19.3,11.336a.527.527,0,0,1,0,.764l-7.091,7.091c-.218.218-.327.218-.436.218a.825.825,0,0,1-.436-.109L4.245,12.209a.527.527,0,0,1,0-.764l7.091-7.091c.218-.218.327-.218.436-.218m0-1.636a2.154,2.154,0,0,0-1.527.655L3.155,10.245a2.108,2.108,0,0,0,0,3.055l7.091,7.091a2.109,2.109,0,0,0,3.055,0L20.391,13.3a2.108,2.108,0,0,0,0-3.055L13.3,3.155A2.154,2.154,0,0,0,11.773,2.5Z" transform="translate(0.227 0.227)"/></svg>
