<svg xmlns="http://www.w3.org/2000/svg" width="24" height="24" viewBox="0 0 24 24"><path class="line" d="M12.051,24A12.052,12.052,0,0,1,0,12.051,12.14,12.14,0,0,1,12.051,0a.789.789,0,0,1,.715.409.771.771,0,0,1-.1.817,10.886,10.886,0,0,0-1.94,5.617,5.549,5.549,0,0,0,1.736,4.494,7.047,7.047,0,0,0,5.719,1.328,15.3,15.3,0,0,0,4.7-1.43.872.872,0,0,1,.715,0,.84.84,0,0,1,.409.613A12.075,12.075,0,0,1,12.051,24ZM10.621,1.634a10.462,10.462,0,0,0,1.43,20.834,10.577,10.577,0,0,0,10.417-9.294A14.878,14.878,0,0,1,18.485,14.2a9.007,9.007,0,0,1-6.843-1.634A6.526,6.526,0,0,1,9.191,6.945,10.606,10.606,0,0,1,10.621,1.634Z"/><path class="line" d="M15.853,4.3l-.919,1.634L13.3,6.853l1.634.817.919,1.736L16.67,7.67l1.736-.817L16.67,5.934Z" transform="translate(0.283 0.091)"/><path class="line" d="M19.853.3l-.919,1.634L17.3,2.853l1.634.817.919,1.736L20.67,3.67l1.736-.817L20.67,1.934Z" transform="translate(0.368 0.006)"/></svg>
