<svg xmlns="http://www.w3.org/2000/svg"  viewBox="0 0 24 24" width="24" height="24"><path class="line" d="M5,20c0.7,0,1.2,0.6,1.2,1.3c0,0.7-0.5,1.2-1.2,1.2c-0.7,0-1.2-0.6-1.2-1.3	C3.8,20.6,4.4,20.1,5,20 M5,18.8c-1.4,0-2.5,1-2.5,2.4c0,1.4,1,2.5,2.4,2.5s2.5-1,2.5-2.4c0,0,0,0,0-0.1c0.1-1.3-0.9-2.4-2.2-2.5	C5.2,18.8,5.1,18.8,5,18.8z"/><path class="line" d="M5,23.8C5,23.8,4.9,23.8,5,23.8c-1.5,0-2.6-1.2-2.5-2.6c0-0.7,0.3-1.3,0.8-1.8C3.7,19,4.3,18.7,5,18.7	c0,0,0.1,0,0.1,0c0,0,0.1,0,0.1,0c1.3,0.1,2.4,1.2,2.3,2.5c0,0,0,0,0,0.1C7.5,22.7,6.3,23.8,5,23.8z M5,18.8	c-0.6,0-1.2,0.2-1.7,0.7c-0.5,0.4-0.7,1.1-0.8,1.7c0,1.3,1,2.5,2.4,2.5c0,0,0,0,0.1,0c1.3,0,2.4-1.1,2.4-2.4c0,0,0,0,0-0.1	c0.1-1.3-0.9-2.4-2.2-2.4C5.2,18.8,5.1,18.8,5,18.8L5,18.8C5,18.8,5,18.8,5,18.8z M5,22.6c-0.3,0-0.7-0.2-0.9-0.4s-0.4-0.6-0.4-0.9	C3.8,20.6,4.4,20,5,20h0c0.7,0,1.3,0.6,1.3,1.3C6.3,22,5.7,22.6,5,22.6z M5,20.1c-0.6,0-1.1,0.5-1.2,1.2c0,0.3,0.1,0.6,0.3,0.9	s0.5,0.4,0.8,0.4c0.6,0,1.1-0.5,1.2-1.2c0-0.3-0.1-0.6-0.3-0.9C5.6,20.2,5.4,20.1,5,20.1z"/><path class="line" d="M19.6,20c0.7,0,1.3,0.5,1.3,1.2s-0.5,1.3-1.2,1.3s-1.3-0.5-1.3-1.2c0,0,0,0,0,0	C18.4,20.6,18.9,20.1,19.6,20 M19.6,18.8c-1.4,0-2.5,1.1-2.5,2.4s1.1,2.5,2.4,2.5s2.5-1.1,2.5-2.4c0,0,0,0,0-0.1	c0.1-1.3-0.9-2.4-2.2-2.5C19.7,18.8,19.6,18.8,19.6,18.8z"/><path class="line" d="M19.5,23.8C19.5,23.8,19.5,23.8,19.5,23.8c-1.5,0-2.6-1.2-2.5-2.6c0-1.4,1.2-2.5,2.5-2.5c0,0,0.1,0,0.1,0 c0,0,0.1,0,0.1,0c1.3,0.1,2.4,1.2,2.3,2.5c0,0,0,0,0,0.1c0,0.7-0.3,1.3-0.8,1.8C20.8,23.6,20.2,23.8,19.5,23.8z M19.5,18.8	c-1.3,0-2.4,1.1-2.4,2.4c0,1.3,1,2.5,2.4,2.5c0,0,0,0,0.1,0c0.6,0,1.2-0.2,1.7-0.7c0.5-0.4,0.7-1.1,0.8-1.7c0,0,0,0,0-0.1	c0-0.6-0.2-1.2-0.6-1.7c-0.4-0.5-1-0.7-1.6-0.8C19.7,18.8,19.6,18.8,19.5,18.8L19.5,18.8C19.6,18.8,19.5,18.8,19.5,18.8z M19.6,22.6c-0.7,0-1.3-0.6-1.3-1.3v0c0-0.7,0.6-1.3,1.3-1.3h0c0.3,0,0.7,0.1,0.9,0.4c0.2,0.2,0.4,0.6,0.4,0.9	C20.9,22,20.3,22.6,19.6,22.6C19.6,22.6,19.6,22.6,19.6,22.6z M19.6,20.1c-0.6,0-1.2,0.5-1.2,1.2v0c0,0.6,0.5,1.2,1.2,1.2	c0,0,0,0,0,0c0.7,0,1.2-0.6,1.2-1.2c0-0.3-0.1-0.6-0.4-0.8C20.2,20.2,19.9,20.1,19.6,20.1C19.6,20.1,19.6,20.1,19.6,20.1L19.6,20.1	z"/><path class="line" d="M12.3,19.8c-5.3,0-9.6-4.3-9.6-9.6V7H1.7C1.3,7,1,6.7,1,6.4C1,6,1.3,5.7,1.7,5.7h1.7	C3.7,5.7,4,6,4,6.3c0,0,0,0,0,0v3.2h17.3c0.4,0,0.7,0.3,0.7,0.6c0,0,0,0,0,0C21.9,15.5,17.6,19.8,12.3,19.8z M4,10.8	c0.3,4.4,3.9,7.8,8.3,7.7c4.4,0,8-3.4,8.4-7.7H4z"/><path class="line" d="M12.3,19.9C12.3,19.9,12.3,19.9,12.3,19.9L12.3,19.9c-5.4,0-9.8-4.4-9.8-9.8v-3H1.7c-0.4,0-0.8-0.4-0.8-0.8 c0-0.4,0.4-0.8,0.8-0.8h1.7c0,0,0,0,0,0c0.4,0,0.8,0.4,0.8,0.8v3.1h17.2c0,0,0,0,0,0c0.4,0,0.8,0.4,0.8,0.8		C22.1,15.6,17.7,19.9,12.3,19.9z M12.3,19.6C12.3,19.6,12.3,19.6,12.3,19.6c5.2,0,9.5-4.2,9.5-9.4c0-0.3-0.2-0.5-0.5-0.5 c0,0,0,0,0,0H3.9V6.4c0-0.3-0.2-0.5-0.5-0.5c0,0,0,0,0,0H1.7c-0.3,0-0.5,0.2-0.5,0.5c0,0.3,0.2,0.5,0.5,0.5h1.2v3.3	C2.9,15.4,7.1,19.6,12.3,19.6L12.3,19.6z M12.2,18.7c-4.4,0-8.1-3.4-8.4-7.9l0-0.2h17l0,0.2C20.5,15.2,16.7,18.7,12.2,18.7 C12.3,18.7,12.3,18.7,12.2,18.7z M4.2,10.9c0.3,4.2,3.8,7.4,8,7.4c0,0,0.1,0,0.1,0c4.2,0,7.8-3.3,8.2-7.4H4.2z"/><path class="line" d="M15.2,1.5c4.6,0.5,5.5,3.6,5.6,5.7h-5.6V1.5 M14.6,0.2c-0.3,0-0.6,0.3-0.6,0.7v7 c0,0.3,0.3,0.6,0.6,0.7h6.8c0.4,0,0.6-0.3,0.6-0.6c0,0,0,0,0,0C22,6,21.5,0.5,14.6,0.2z"/><path class="line" d="M21.4,8.6h-6.8c-0.4,0-0.8-0.4-0.8-0.8l0-7c0-0.4,0.4-0.8,0.8-0.8l0,0l0,0c6.8,0.3,7.6,5.5,7.6,7.8 	c0,0.2-0.1,0.4-0.2,0.6C21.8,8.5,21.6,8.6,21.4,8.6z M14.6,0.4c-0.3,0-0.5,0.2-0.5,0.5l0,6.9c0,0.3,0.2,0.5,0.5,0.5l6.8,0	c0.1,0,0.3-0.1,0.3-0.1s0.1-0.2,0.1-0.3C21.8,1.4,16.8,0.5,14.6,0.4z M21,7.4H15v-6l0.2,0c4.8,0.5,5.7,3.9,5.7,5.9L21,7.4z M15.4,7.1h5.3c-0.1-2.2-1.2-4.9-5.3-5.4V7.1z"/></svg>
