<svg xmlns="http://www.w3.org/2000/svg" width="24" height="24" viewBox="0 0 24 24"><path class="line" d="M8.3,19.8c-1.1,0-3.3-.5-3.7-2.6a.779.779,0,0,1,.6-.9.641.641,0,0,1,.8.6c.3,1.3,2.1,1.4,2.2,1.4A.713.713,0,0,1,9,19,.773.773,0,0,1,8.3,19.8Z" transform="translate(0 1)"/><path class="line" d="M18.4,22H7.9a1.9,1.9,0,1,1,0-3.8h4.6a.789.789,0,0,1,.8.8.736.736,0,0,1-.8.8H7.9a.4.4,0,1,0,0,.8H18.4a3.723,3.723,0,0,0,2.4-1A4.794,4.794,0,0,0,22,16.1c0-4.6-3.9-5-4.1-5h-6a1.2,1.2,0,0,0-.8.2.584.584,0,0,0-.1.4.584.584,0,0,0,.1.4,1.078,1.078,0,0,0,.7.2h3.1a.752.752,0,0,1,.7.5,2.954,2.954,0,0,0,2.7,2.1.789.789,0,0,1,.8.8.736.736,0,0,1-.8.8,4.164,4.164,0,0,1-3.9-2.7H11.9a2.484,2.484,0,0,1-1.8-.6,1.915,1.915,0,0,1-.6-1.5,1.763,1.763,0,0,1,.6-1.5A2.024,2.024,0,0,1,12,9.7h6a6.127,6.127,0,0,1,5.5,6.5,6.57,6.57,0,0,1-1.6,4.6A5.542,5.542,0,0,1,18.4,22Z" transform="translate(0 1)"/><path class="line" d="M12.8,17.5H2.8A2.883,2.883,0,0,1,0,14.6V1.9A2.818,2.818,0,0,1,2.8-1h10a2.883,2.883,0,0,1,2.8,2.9V9.8a.8.8,0,0,1-1.6,0V1.9A1.347,1.347,0,0,0,12.7.5H2.7A1.347,1.347,0,0,0,1.4,1.9V14.6A1.347,1.347,0,0,0,2.7,16h10A1.347,1.347,0,0,0,14,14.6v-.9a.789.789,0,0,1,.8-.8.736.736,0,0,1,.8.8v.9A2.952,2.952,0,0,1,12.8,17.5Z" transform="translate(0 1)"/><path class="line" d="M14,5H1.5a.713.713,0,0,0-.7.8.736.736,0,0,0,.8.8H14A.8.8,0,0,0,14,5Z" transform="translate(0 1)"/></svg>
