<svg xmlns="http://www.w3.org/2000/svg" width="24" height="24" viewBox="0 0 24 24"><path class="line" d="M12.96,1.6c5.44,0,9.44,4.16,9.44,9.92V22.4H1.6V11.52c0-5.76,4-9.92,9.44-9.92h1.92m0-1.6H11.04C4.48,0,0,5.12,0,11.52V23.04A1.032,1.032,0,0,0,.96,24H23.04a1.032,1.032,0,0,0,.96-.96V11.52C24,5.12,19.68,0,12.96,0Z" transform="translate(0 0)"/><path class="line" d="M5.25,10.5h0a.709.709,0,0,1-.75-.75V8.25a.709.709,0,0,1,.75-.75h0A.709.709,0,0,1,6,8.25v1.5A.709.709,0,0,1,5.25,10.5Z" transform="translate(3 4.5)"/><path class="line" d="M10.25,10.5h0a.709.709,0,0,1-.75-.75V8.25a.709.709,0,0,1,.75-.75h0a.709.709,0,0,1,.75.75v1.5A.709.709,0,0,1,10.25,10.5Z" transform="translate(5.5 4.5)"/><path class="line" d="M7.75,24.5h0A.764.764,0,0,1,7,23.643V1.357A.764.764,0,0,1,7.75.5h0a.764.764,0,0,1,.75.857V23.643A.764.764,0,0,1,7.75,24.5Z" transform="translate(4.25 -0.5)"/></svg>
