<svg xmlns="http://www.w3.org/2000/svg" width="24" height="24" viewBox="0 0 24 24"><path class="line" d="M23.2,21.9H.8a.787.787,0,0,0-.8.8.734.734,0,0,0,.8.8H23.2a.8.8,0,0,0,0-1.6Z"/><path class="line" d="M18,23.4a.787.787,0,0,1-.8-.8v-8a.787.787,0,0,1,.8-.8.734.734,0,0,1,.8.8v8A.859.859,0,0,1,18,23.4Z" transform="translate(-0.071)"/><path class="line" d="M18.375,14.4h-.8c-2.988,0-5.278-2.6-5.278-6V8.2l1.394-5.7a.68.68,0,0,1,.7-.5h7.27a.728.728,0,0,1,.7.6l1.394,5.7v.2C23.752,11.9,21.462,14.4,18.375,14.4ZM13.794,8.5c0,2.6,1.593,4.4,3.784,4.4h.8c2.191,0,3.784-1.8,3.784-4.4l-1.2-5H14.889Z" transform="translate(-0.051)"/><path class="line" d="M20.965,10a8.917,8.917,0,0,1-3.386-.7A6.541,6.541,0,0,0,13.4,8.8a.765.765,0,0,1-.3-1.5,7.413,7.413,0,0,1,5.079.6,6.069,6.069,0,0,0,4.282.4.765.765,0,0,1,.3,1.5A7.389,7.389,0,0,1,20.965,10Z" transform="translate(-0.052)"/><path class="line" d="M5.98,17.2A5.112,5.112,0,0,1,1.2,11.9V.8C1.3.3,1.6,0,2,0a.787.787,0,0,1,.8.8V12A3.586,3.586,0,0,0,6.08,15.8c1.793,0,3.187-1.8,3.187-3.8V.8a.712.712,0,0,1,.7-.8.787.787,0,0,1,.8.8V12A5.084,5.084,0,0,1,5.98,17.2Z" transform="translate(-0.005)"/><path class="line" d="M6,23.4a.787.787,0,0,1-.8-.8v-6a.787.787,0,0,1,.8-.8.734.734,0,0,1,.8.8v6A.859.859,0,0,1,6,23.4Z" transform="translate(-0.022)"/><path class="line" d="M9.468,5.4H2.5a.772.772,0,0,1-.7-.8.787.787,0,0,1,.8-.8H9.568a.787.787,0,0,1,.8.8A.873.873,0,0,1,9.468,5.4Z" transform="translate(-0.007)"/><path class="line" d="M6.994,8.1a.5.5,0,1,1-.5.5.471.471,0,0,1,.5-.5m0-1a1.5,1.5,0,0,0,0,3,1.5,1.5,0,0,0,0-3Z" transform="translate(-0.023)"/><path class="line" d="M5.494,12.1a.5.5,0,1,1-.5.5.471.471,0,0,1,.5-.5m0-1a1.5,1.5,0,0,0,0,3,1.5,1.5,0,0,0,0-3Z" transform="translate(-0.017)"/></svg>
