<svg xmlns="http://www.w3.org/2000/svg" width="24" height="24" viewBox="0 0 24 24"><path class="line" d="M20,1.5A2.476,2.476,0,0,1,22.5,4V20A2.476,2.476,0,0,1,20,22.5H4A2.476,2.476,0,0,1,1.5,20V4A2.476,2.476,0,0,1,4,1.5H20M20,0H4A4.012,4.012,0,0,0,0,4V20a4.012,4.012,0,0,0,4,4H20a4.012,4.012,0,0,0,4-4V4a4.012,4.012,0,0,0-4-4Z"/><path class="line" d="M18.9,17.5H13.7a.789.789,0,0,1-.8-.8.736.736,0,0,1,.8-.8h4.5V11.3A1.324,1.324,0,0,0,16.9,10H14.1a.764.764,0,0,1-.5-.2L10,6.3H6a.789.789,0,0,1-.8-.8A.736.736,0,0,1,6,4.7h4.3a.764.764,0,0,1,.5.2l3.7,3.7h2.4a2.8,2.8,0,0,1,2.8,2.8v5.4A.713.713,0,0,1,18.9,17.5Z"/><path class="line" d="M11,15.9a1.309,1.309,0,0,1,1.3,1.2A1.324,1.324,0,0,1,11,18.4a1.24,1.24,0,0,1-1.2-1.3A1.155,1.155,0,0,1,11,15.9m0-1.5a2.689,2.689,0,0,0-2.7,2.7A2.75,2.75,0,1,0,11,14.4Z"/><path class="line" d="M8.3,18.3H5.9a.789.789,0,0,1-.8-.8.736.736,0,0,1,.8-.8H8.2a.789.789,0,0,1,.8.8A.713.713,0,0,1,8.3,18.3Z"/></svg>
